<svg width="90" height="66" viewBox="0 0 90 66" fill="none" xmlns="http://www.w3.org/2000/svg">
<g clip-path="url(#clip0_7_7908)">
<path d="M71.25 1.25C71.25 1.94036 71.8096 2.5 72.5 2.5H73.75C74.4404 2.5 75 1.94036 75 1.25C75 0.559645 74.4404 0 73.75 0H72.5C71.8096 0 71.25 0.559645 71.25 1.25Z" fill="#202020"/>
<path d="M35 40H41.0723L39.3045 38.2322C38.8357 37.7634 38.1998 37.5 37.5368 37.5H35C25.335 37.5 17.5 29.665 17.5 20C17.5 10.335 25.335 2.50001 35 2.5H55C64.665 2.5 72.5 10.335 72.5 20C72.5 29.665 64.665 37.5 55 37.5H47.5184C46.5238 37.5 45.57 37.1049 44.8667 36.4017L42.7957 34.3306C41.6236 33.1585 40.0338 32.5 38.3762 32.5H35C28.0964 32.5 22.5 26.9036 22.5 20C22.5 13.0964 28.0964 7.5 35 7.5H55C61.9036 7.5 67.5 13.0964 67.5 20C67.5 26.9036 61.9036 32.5 55 32.5H50.1961C49.2015 32.5 48.2477 32.1049 47.5444 31.4017L45.4733 29.3306C44.3012 28.1585 42.7115 27.5 41.0539 27.5H35C30.8579 27.5 27.5 24.1421 27.5 20C27.5 15.8579 30.8579 12.5 35 12.5H55C59.1421 12.5 62.5 15.8579 62.5 20C62.5 24.0916 59.2235 27.418 55.1512 27.4985L55.1504 27.5H53.3211C52.3265 27.5 51.3727 27.1049 50.6694 26.4017L48.5983 24.3306C47.6366 23.3688 46.3937 22.7529 45.0628 22.5628L45 22.5H35C33.6193 22.5 32.5 21.3807 32.5 20C32.5 18.6193 33.6193 17.5 35 17.5H55C56.3807 17.5 57.5 18.6193 57.5 20C57.5 21.3807 56.3807 22.5 55 22.5H50L51.7678 24.2678C52.2366 24.7366 52.8725 25 53.5355 25H55C57.7614 25 60 22.7614 60 20C60 17.2386 57.7614 15 55 15H35C32.2386 15 30 17.2386 30 20C30 22.7614 32.2386 25 35 25H44.1789C45.1735 25 46.1273 25.3951 46.8306 26.0983L48.9017 28.1694C50.0738 29.3415 51.6635 30 53.3211 30H55.625V29.9808C60.8567 29.6582 65 25.3129 65 20C65 14.4772 60.5228 10 55 10H35C29.4772 10 25 14.4772 25 20C25 25.5229 29.4772 30 35 30H41.0539C42.0485 30 43.0023 30.3951 43.7056 31.0983L45.7767 33.1694C46.9488 34.3415 48.5385 35 50.1961 35H55C63.2843 35 70 28.2843 70 20C70 11.7157 63.2843 5 55 5H35C26.7157 5 20 11.7157 20 20C20 28.2843 26.7157 35 35 35H38.3762C39.3708 35 40.3246 35.3951 41.0279 36.0983L43.099 38.1694C44.2711 39.3415 45.8608 40 47.5184 40H55C66.0457 40 75 31.0457 75 20C75 8.9543 66.0457 -9.65645e-07 55 0L35 4.13264e-06C23.9543 5.09829e-06 15 8.95431 15 20C15 31.0457 23.9543 40 35 40Z" fill="#202020"/>
</g>
<path d="M7.0893 65H1.2693V51.6H7.0893C11.1093 51.6 13.6693 54.2 13.6693 58.3C13.6693 62.4 11.1093 65 7.0893 65ZM7.0893 52.9H2.7093V63.7H7.0893C10.4893 63.7 12.1693 61.94 12.1693 58.3C12.1693 54.66 10.4893 52.9 7.0893 52.9ZM16.9852 65H15.5652V55.12H16.8452V57.82H16.9452C17.2452 56.24 18.3652 54.92 20.4252 54.92C22.7052 54.92 23.7052 56.6 23.7052 58.44V59.42H22.2852V58.66C22.2852 56.98 21.5852 56.16 19.8652 56.16C17.8652 56.16 16.9852 57.42 16.9852 59.64V65ZM26.7704 53.86H25.3504V51.6H26.7704V53.86ZM26.7704 65H25.3504V55.12H26.7704V65ZM34.619 65H32.879L28.159 55.12H29.699L33.699 63.6H33.819L37.799 55.12H39.339L34.619 65ZM45.441 65.2C42.261 65.2 40.241 63.2 40.241 60.06C40.241 57.06 42.241 54.92 45.421 54.92C48.321 54.92 50.381 56.6 50.381 59.54C50.381 59.9 50.341 60.2 50.281 60.46H41.581C41.661 62.68 42.801 64.02 45.421 64.02C47.741 64.02 48.821 63.16 48.821 61.72V61.58H50.241V61.72C50.241 63.78 48.201 65.2 45.441 65.2ZM45.401 56.1C42.841 56.1 41.681 57.42 41.581 59.58H49.041C49.041 59.48 49.041 59.38 49.041 59.28C49.041 57.2 47.721 56.1 45.401 56.1ZM62.1845 65H52.2645V51.6H53.6845V63.7H62.1845V65ZM65.2079 53.86H63.7879V51.6H65.2079V53.86ZM65.2079 65H63.7879V55.12H65.2079V65ZM69.0165 65H67.5965V55.12H68.8765V58.22H68.9765C69.3165 56.54 70.7165 54.92 73.1765 54.92C75.9565 54.92 77.3365 56.9 77.3365 59.24V65H75.9165V59.44C75.9165 57.4 74.9365 56.22 72.6765 56.22C70.2765 56.22 69.0165 57.68 69.0165 60.22V65ZM84.3473 65.2C81.1673 65.2 79.1473 63.2 79.1473 60.06C79.1473 57.06 81.1473 54.92 84.3273 54.92C87.2273 54.92 89.2873 56.6 89.2873 59.54C89.2873 59.9 89.2473 60.2 89.1873 60.46H80.4873C80.5673 62.68 81.7073 64.02 84.3273 64.02C86.6473 64.02 87.7273 63.16 87.7273 61.72V61.58H89.1473V61.72C89.1473 63.78 87.1073 65.2 84.3473 65.2ZM84.3073 56.1C81.7473 56.1 80.5873 57.42 80.4873 59.58H87.9473C87.9473 59.48 87.9473 59.38 87.9473 59.28C87.9473 57.2 86.6273 56.1 84.3073 56.1Z" fill="#202020"/>
<defs>
<clipPath id="clip0_7_7908">
<rect width="60" height="40" fill="white" transform="translate(15)"/>
</clipPath>
</defs>
</svg>
